<?xml version="1.0" standalone="no"?>
<!DOCTYPE svg PUBLIC "-//W3C//DTD SVG 20010904//EN"
 "http://www.w3.org/TR/2001/REC-SVG-20010904/DTD/svg10.dtd">
<svg version="1.0" xmlns="http://www.w3.org/2000/svg"
 width="6016.000000pt" height="4016.000000pt" viewBox="0 0 6016.000000 4016.000000"
 preserveAspectRatio="xMidYMid meet">

<g transform="translate(0.000000,4016.000000) scale(0.100000,-0.100000)"
fill="#000000" stroke="none">
<path d="M253 40034 c70 -69 135 -136 143 -150 15 -23 14 -29 -22 -122 -20
-53 -43 -102 -49 -107 -7 -6 -31 -40 -53 -77 -23 -37 -58 -91 -79 -120 -62
-88 -113 -167 -113 -174 0 -4 -18 -33 -40 -65 -22 -32 -40 -63 -40 -69 0 -14
27 -12 34 3 5 9 7 9 12 -1 5 -10 10 -10 25 4 15 13 23 14 50 5 24 -8 35 -8 39
0 5 6 21 8 44 4 24 -5 36 -3 36 4 0 6 13 11 29 11 16 0 34 7 41 15 7 8 19 15
27 15 10 0 11 5 4 18 -14 26 -2 98 20 118 15 13 19 31 19 76 0 39 5 65 15 74
16 16 11 39 -15 69 -10 11 -25 32 -34 46 -15 25 -16 28 -1 43 20 20 61 20 99
1 15 -8 46 -15 67 -15 56 0 129 -22 129 -38 0 -12 3 -12 15 -2 20 16 51 -4
120 -79 l52 -55 -39 -18 c-22 -10 -52 -18 -67 -18 -39 0 -41 -5 -24 -58 16
-50 17 -62 4 -134 0 -5 -8 -8 -16 -8 -7 0 -18 -7 -23 -16 -7 -13 -15 -14 -56
-3 -41 10 -52 9 -86 -7 -43 -21 -51 -34 -21 -34 11 0 22 -4 26 -9 3 -6 27 -7
54 -4 31 3 51 1 55 -6 4 -6 20 -11 36 -11 16 0 30 -7 34 -16 10 -25 30 -5 96
96 35 52 74 107 87 121 l23 25 -24 29 c-38 45 -21 44 22 -1 21 -21 56 -55 77
-75 22 -20 54 -51 71 -70 62 -67 285 -279 294 -279 6 0 10 -6 10 -13 0 -7 14
-23 31 -37 46 -37 79 -70 79 -79 0 -5 11 -12 25 -15 14 -4 25 -11 25 -16 0
-14 40 -53 48 -46 3 4 14 -12 24 -34 10 -22 24 -40 31 -40 7 0 25 -14 40 -31
15 -17 27 -27 27 -23 1 5 8 -3 16 -18 8 -16 23 -28 34 -28 11 0 20 -7 20 -15
0 -21 36 -59 48 -51 6 3 13 -5 16 -19 4 -14 13 -25 21 -25 8 0 15 -5 15 -10 0
-6 5 -9 11 -8 7 2 16 -12 21 -29 5 -18 15 -33 23 -33 8 0 15 -4 15 -10 0 -5 7
-10 15 -10 9 0 20 -12 26 -26 5 -15 12 -24 16 -20 3 3 12 -3 20 -14 8 -11 22
-20 32 -20 10 0 21 -9 24 -19 2 -11 30 -36 61 -57 31 -20 56 -44 56 -53 0 -27
15 -41 37 -35 33 9 37 33 8 56 -14 11 -25 26 -25 34 0 8 -7 14 -15 14 -8 0
-15 8 -15 18 0 9 -16 31 -37 47 -20 17 -49 40 -64 53 -15 13 -31 32 -34 42 -4
11 -12 20 -18 20 -7 0 -18 14 -25 30 -8 17 -19 30 -26 30 -7 0 -21 18 -32 40
-10 22 -23 40 -27 40 -9 0 -85 77 -105 106 -7 11 -15 27 -19 37 -3 10 -12 16
-19 13 -8 -3 -14 0 -14 7 0 7 -25 39 -56 72 -30 33 -65 75 -77 93 -12 17 -27
30 -33 28 -7 -3 -9 5 -6 20 3 15 0 24 -8 24 -7 0 -19 8 -26 18 -7 9 -18 17
-25 17 -6 0 -17 9 -23 19 -16 29 -28 45 -52 69 -12 12 -26 32 -33 45 -6 12
-18 22 -26 22 -22 0 -55 32 -55 52 0 10 -11 25 -25 34 -14 9 -25 21 -25 26 0
15 -29 40 -39 34 -14 -9 -33 21 -26 43 3 10 1 22 -5 26 -5 3 -10 -1 -10 -10 0
-10 -17 1 -48 32 -31 30 -45 51 -38 55 7 5 4 8 -6 8 -20 0 -80 58 -73 70 3 5
-4 6 -16 3 -18 -5 -20 -3 -15 15 5 15 1 24 -14 32 -11 6 -18 15 -15 20 3 5 -4
11 -15 15 -11 3 -20 10 -20 15 0 5 -13 24 -30 42 -16 18 -30 28 -30 23 0 -5
-29 20 -65 55 -36 35 -65 72 -65 81 0 9 -7 19 -15 23 -8 3 -15 12 -15 20 0 8
-9 18 -20 21 -11 3 -20 13 -20 21 0 8 -4 14 -10 14 -5 0 -10 7 -10 15 0 8 -4
15 -10 15 -5 0 -10 9 -10 20 0 21 -66 90 -87 90 -16 0 -17 17 0 23 8 4 7 6 -3
6 -8 1 -28 17 -45 36 l-30 35 -175 0 -174 0 127 -126z m637 -384 c0 -5 -2 -10
-4 -10 -3 0 -8 5 -11 10 -3 6 -1 10 4 10 6 0 11 -4 11 -10z m70 -60 c0 -5 -2
-10 -4 -10 -3 0 -8 5 -11 10 -3 6 -1 10 4 10 6 0 11 -4 11 -10z"/>
<path d="M1928 40120 c22 -22 45 -40 51 -40 6 0 11 -4 11 -10 0 -10 80 -90 91
-90 4 0 9 -9 12 -20 3 -11 12 -20 20 -20 9 0 18 -8 22 -17 6 -21 61 -83 72
-83 5 -1 19 -14 33 -30 13 -17 30 -30 37 -30 7 0 13 -6 13 -13 0 -8 11 -19 25
-25 14 -6 25 -18 25 -27 0 -8 4 -15 10 -15 5 0 26 -18 46 -40 21 -22 43 -40
51 -40 7 0 13 -7 13 -15 0 -9 7 -18 15 -21 8 -3 17 -14 20 -25 4 -10 13 -19
21 -19 7 0 19 -9 26 -20 7 -11 18 -20 24 -20 7 0 14 -10 17 -21 4 -15 11 -20
21 -16 10 4 16 1 16 -8 0 -8 7 -15 15 -15 8 0 15 -7 15 -15 0 -17 50 -66 62
-59 4 3 8 -2 8 -10 0 -8 10 -22 23 -31 12 -8 21 -19 19 -23 -1 -4 6 -8 18 -10
11 -2 20 -10 20 -17 0 -9 6 -12 15 -9 9 4 15 0 15 -8 0 -8 18 -32 40 -53 l40
-39 0 28 c0 44 23 25 27 -23 4 -43 26 -80 37 -62 3 5 -1 11 -9 15 -8 3 -15 16
-15 28 0 18 2 20 10 8 10 -17 15 -14 24 16 5 15 -3 30 -31 58 -27 27 -39 33
-41 23 -2 -9 -9 -18 -17 -21 -18 -6 -39 19 -31 39 3 9 -4 24 -19 37 -14 12
-25 28 -25 35 0 7 -11 13 -23 13 -19 0 -26 8 -36 40 -10 35 -16 40 -41 40 -22
0 -30 -5 -31 -17 -1 -33 -18 19 -18 58 -1 20 -8 42 -16 49 -10 9 -15 9 -15 1
0 -23 -16 -10 -25 22 -8 25 -15 31 -32 30 -15 -2 -23 3 -23 12 0 8 5 15 10 15
22 0 8 19 -16 22 -16 2 -32 14 -42 33 -19 34 -38 55 -47 55 -21 0 -65 44 -65
66 0 13 -4 24 -10 24 -5 0 -10 6 -10 13 0 6 -14 21 -30 32 -16 11 -30 24 -30
28 0 13 -106 117 -119 117 -6 0 -11 4 -11 10 0 5 -25 35 -55 66 -30 31 -55 60
-55 64 0 14 -31 20 -112 20 l-80 0 40 -40z m552 -450 c0 -5 -2 -10 -4 -10 -3
0 -8 5 -11 10 -3 6 -1 10 4 10 6 0 11 -4 11 -10z"/>
<path d="M3725 40150 c3 -5 13 -10 21 -10 8 0 14 5 14 10 0 6 -9 10 -21 10
-11 0 -17 -4 -14 -10z"/>
<path d="M3770 40131 c0 -17 5 -33 10 -36 6 -4 10 8 10 29 0 20 -4 36 -10 36
-5 0 -10 -13 -10 -29z"/>
<path d="M3808 40113 c-6 -61 -1 -77 17 -59 10 10 11 24 3 59 -5 26 -11 47
-13 47 -2 0 -5 -21 -7 -47z"/>
<path d="M3862 40018 c-7 -7 -12 -15 -12 -19 0 -11 99 -9 106 3 5 7 0 9 -13 6
-11 -3 -28 1 -38 8 -23 17 -28 17 -43 2z"/>
<path d="M3890 39970 c0 -5 5 -10 10 -10 6 0 10 5 10 10 0 6 -4 10 -10 10 -5
0 -10 -4 -10 -10z"/>
<path d="M4000 39906 c0 -31 6 -34 13 -6 3 11 1 23 -4 26 -5 3 -9 -6 -9 -20z"/>
<path d="M3960 39890 c0 -5 7 -10 16 -10 8 0 12 5 9 10 -3 6 -10 10 -16 10 -5
0 -9 -4 -9 -10z"/>
<path d="M4051 39854 c0 -11 3 -14 6 -6 3 7 2 16 -1 19 -3 4 -6 -2 -5 -13z"/>
<path d="M800 39770 c0 -5 5 -10 11 -10 5 0 7 5 4 10 -3 6 -8 10 -11 10 -2 0
-4 -4 -4 -10z"/>
<path d="M2995 39101 c1 -22 44 -71 63 -71 6 0 12 -4 12 -10 0 -5 5 -10 10
-10 6 0 10 7 10 15 0 9 -9 15 -25 15 -18 0 -25 5 -25 20 0 11 -4 20 -10 20 -5
0 -10 9 -10 20 0 11 -6 20 -13 20 -8 0 -13 -9 -12 -19z"/>
<path d="M3100 38991 c0 -6 5 -13 10 -16 6 -3 10 1 10 9 0 9 -4 16 -10 16 -5
0 -10 -4 -10 -9z"/>
<path d="M20 38980 c0 -5 5 -10 10 -10 6 0 10 5 10 10 0 6 -4 10 -10 10 -5 0
-10 -4 -10 -10z"/>
<path d="M3140 38944 c0 -8 5 -12 10 -9 6 3 10 10 10 16 0 5 -4 9 -10 9 -5 0
-10 -7 -10 -16z"/>
<path d="M3175 38910 c3 -5 8 -10 11 -10 2 0 4 5 4 10 0 6 -5 10 -11 10 -5 0
-7 -4 -4 -10z"/>
<path d="M0 38668 l0 -213 41 -2 c48 -3 77 -27 326 -268 91 -88 172 -159 180
-159 8 1 13 -5 11 -15 -3 -15 31 -51 49 -51 4 0 28 -25 53 -54 24 -30 48 -52
52 -50 4 3 8 -2 8 -10 0 -9 3 -15 8 -14 11 4 52 -22 52 -33 0 -5 20 -30 45
-56 25 -25 45 -50 45 -55 0 -5 4 -6 10 -3 9 5 80 -57 80 -70 0 -13 94 -96 115
-101 15 -4 22 -11 18 -20 -3 -9 1 -14 11 -14 11 0 16 -7 14 -17 -2 -12 4 -19
20 -21 12 -2 22 -7 22 -12 0 -5 16 -25 35 -44 19 -20 35 -40 35 -46 0 -6 6
-10 13 -8 12 2 77 -57 77 -71 0 -4 9 -16 20 -26 20 -19 29 -8 9 12 -8 8 -8 13
0 17 6 4 11 1 11 -7 0 -8 7 -17 15 -21 8 -3 15 -12 15 -19 0 -7 11 -20 25 -27
16 -8 23 -19 20 -29 -4 -13 3 -16 38 -13 27 2 49 -2 62 -12 19 -15 18 -15 -22
-16 -24 0 -43 -4 -43 -10 0 -5 9 -10 20 -10 11 0 20 -4 20 -9 0 -5 14 -23 30
-39 17 -17 30 -36 30 -42 0 -8 8 -10 23 -6 12 3 25 6 30 6 11 0 8 30 -3 30 -5
0 -10 18 -10 40 0 31 -5 42 -22 51 -37 19 -68 51 -68 71 0 11 -7 18 -19 18
-19 0 -58 47 -52 65 1 6 -1 7 -5 2 -9 -9 -44 21 -44 38 0 19 -34 52 -47 48
-16 -6 -17 9 -1 25 9 9 2 12 -32 12 -34 1 -41 3 -28 10 10 6 14 18 11 30 -4
15 -11 18 -30 14 -19 -5 -25 -2 -30 15 -3 12 -13 21 -25 21 -14 0 -18 5 -14
15 8 21 -3 45 -20 45 -8 0 -17 8 -21 18 -3 9 -21 32 -40 49 -18 18 -33 37 -33
43 0 5 -5 10 -10 10 -14 0 -52 38 -73 73 -10 15 -24 27 -32 27 -8 0 -15 5 -15
11 0 11 -60 69 -72 69 -4 0 -15 14 -23 30 -9 18 -21 28 -27 24 -7 -4 -8 -3 -4
5 4 6 0 14 -10 18 -20 7 -139 126 -147 146 -3 8 -20 21 -39 30 -18 8 -42 31
-52 49 -20 34 -122 137 -194 197 -23 19 -39 38 -36 43 3 5 -3 12 -15 15 -15 4
-21 13 -21 34 0 19 -5 29 -15 29 -8 0 -24 17 -35 38 -11 20 -44 57 -74 82 -36
31 -56 56 -62 80 -7 27 -15 36 -35 38 -21 2 -28 10 -32 36 -7 43 -45 126 -57
126 -6 0 -10 -81 -10 -212z m1372 -1375 c8 -10 6 -13 -6 -13 -20 0 -31 24 -21
48 7 15 8 15 13 -3 2 -11 9 -26 14 -32z m83 -85 c6 -4 2 -8 -7 -8 -10 0 -18 7
-18 17 0 9 3 12 8 7 4 -5 12 -12 17 -16z m145 -118 c0 -17 -3 -18 -27 -9 -14
5 -32 8 -40 5 -7 -3 -13 -1 -13 4 0 7 18 13 68 19 6 0 12 -8 12 -19z m0 -52
c0 -16 -3 -19 -11 -11 -6 6 -8 16 -5 22 11 17 16 13 16 -11z"/>
<path d="M3240 38860 c0 -5 7 -10 16 -10 8 0 12 5 9 10 -3 6 -10 10 -16 10 -5
0 -9 -4 -9 -10z"/>
<path d="M3343 38763 c11 -3 16 -11 13 -18 -3 -9 0 -12 10 -8 7 3 14 9 14 13
0 9 -26 21 -43 19 -7 -1 -4 -3 6 -6z"/>
<path d="M3420 38691 c0 -6 5 -13 10 -16 6 -3 10 1 10 9 0 9 -4 16 -10 16 -5
0 -10 -4 -10 -9z"/>
<path d="M2262 38143 c5 -25 28 -28 28 -4 0 12 -6 21 -16 21 -9 0 -14 -7 -12
-17z"/>
<path d="M2320 38081 c0 -4 -12 -6 -27 -4 -24 4 -25 3 -10 -7 9 -6 15 -15 12
-21 -4 -5 0 -9 9 -9 8 0 16 -5 18 -11 2 -7 17 -8 41 -4 l38 7 -30 19 c-17 10
-31 23 -31 29 0 5 -4 10 -10 10 -5 0 -10 -4 -10 -9z"/>
<path d="M2375 37980 c11 -12 21 -17 23 -11 2 6 15 8 30 5 18 -5 24 -3 17 3
-5 6 -28 14 -50 18 l-40 7 20 -22z"/>
<path d="M2430 37940 c0 -5 11 -10 25 -10 14 0 25 5 25 10 0 6 -11 10 -25 10
-14 0 -25 -4 -25 -10z"/>
<path d="M2478 37908 c9 -9 15 -9 24 0 9 9 7 12 -12 12 -19 0 -21 -3 -12 -12z"/>
<path d="M2848 37513 c7 -3 16 -2 19 1 4 3 -2 6 -13 5 -11 0 -14 -3 -6 -6z"/>
<path d="M0 36861 l0 -106 116 -110 c63 -61 143 -138 176 -172 34 -35 67 -63
74 -63 8 0 13 -6 12 -12 -2 -7 7 -14 18 -16 24 -3 85 -62 65 -62 -11 0 -11 -3
-1 -15 7 -8 18 -15 24 -15 6 0 17 -9 24 -21 7 -12 16 -18 19 -15 10 10 32 -15
26 -30 -3 -10 0 -12 10 -8 10 4 15 0 14 -12 -1 -11 6 -20 17 -22 22 -5 59 -39
69 -66 4 -11 13 -16 22 -12 8 3 15 1 15 -5 0 -5 9 -19 20 -31 11 -12 20 -28
20 -35 0 -7 4 -13 10 -13 5 0 7 7 4 15 -4 8 -1 15 5 15 9 0 16 -27 13 -51 -1
-4 8 -4 20 -1 16 4 20 2 16 -10 -4 -8 2 -20 13 -26 12 -8 19 -8 19 -2 0 18 18
11 23 -9 6 -24 47 -17 47 8 0 26 -18 48 -28 34 -6 -9 -12 -7 -22 9 -8 12 -36
45 -62 72 -27 28 -48 54 -48 58 0 4 -22 31 -50 60 -27 29 -50 56 -50 61 0 4
-8 7 -17 7 -11 0 -25 16 -36 38 -10 20 -36 50 -57 66 -44 33 -90 93 -90 118 0
9 -14 21 -32 27 -42 15 -101 77 -101 107 1 16 -5 24 -17 24 -9 0 -22 12 -28
26 -9 18 -17 24 -30 19 -15 -4 -23 4 -37 35 -20 45 -45 71 -45 49 -1 -8 -10 4
-21 26 -10 22 -27 46 -37 53 -9 7 -18 18 -18 25 -1 7 -2 17 -3 23 0 7 -10 14
-21 17 -11 3 -20 14 -20 25 0 11 -9 22 -20 25 -19 5 -20 0 -20 -102z"/>
<path d="M1658 36953 c7 -3 16 -2 19 1 4 3 -2 6 -13 5 -11 0 -14 -3 -6 -6z"/>
<path d="M1703 36934 c-7 -19 18 -38 28 -22 9 14 0 38 -12 38 -5 0 -12 -7 -16
-16z"/>
<path d="M1765 36890 c-3 -5 1 -10 9 -10 9 0 16 5 16 10 0 6 -4 10 -9 10 -6 0
-13 -4 -16 -10z"/>
<path d="M1730 36858 c11 -12 23 -19 26 -15 8 8 -20 37 -36 37 -6 0 -2 -10 10
-22z"/>
<path d="M1870 36730 c0 -5 5 -10 10 -10 6 0 10 5 10 10 0 6 -4 10 -10 10 -5
0 -10 -4 -10 -10z"/>
<path d="M890 35916 c0 -9 30 -14 35 -6 4 6 -3 10 -14 10 -12 0 -21 -2 -21 -4z"/>
<path d="M940 35906 c-6 -9 -10 -21 -8 -28 3 -8 9 -4 17 10 15 28 9 39 -9 18z"/>
<path d="M951 35854 c0 -11 3 -14 6 -6 3 7 2 16 -1 19 -3 4 -6 -2 -5 -13z"/>
<path d="M981 35841 c-10 -7 -10 -10 -1 -16 6 -4 16 -3 22 3 13 13 -4 23 -21
13z"/>
<path d="M1007 35814 c-12 -12 -8 -24 7 -24 8 0 17 -8 19 -17 4 -14 5 -15 6
-2 1 20 -22 52 -32 43z"/>
<path d="M1086 35749 c3 -6 0 -15 -7 -20 -7 -4 -10 -11 -7 -15 8 -8 38 20 38
35 0 6 -7 11 -16 11 -8 0 -12 -5 -8 -11z"/>
<path d="M1140 35676 c0 -9 30 -14 35 -6 4 6 -3 10 -14 10 -12 0 -21 -2 -21
-4z"/>
<path d="M1230 35592 c0 -13 10 -36 22 -50 13 -17 19 -20 15 -9 -4 10 -7 24
-7 31 0 7 -7 21 -15 32 -14 18 -14 18 -15 -4z"/>
<path d="M0 35105 c0 -57 2 -65 19 -65 15 0 18 -5 14 -21 -5 -18 -3 -20 16
-14 15 5 21 2 21 -9 0 -9 4 -16 9 -16 5 0 12 -9 16 -20 3 -11 18 -25 33 -33
15 -7 26 -20 26 -30 -1 -9 3 -17 9 -17 5 0 15 -8 22 -17 11 -15 15 -15 29 -4
9 8 20 10 24 6 4 -4 1 -10 -5 -12 -7 -3 -13 -9 -13 -15 0 -11 50 -58 61 -58
11 0 69 -57 69 -68 0 -5 8 -9 17 -8 12 0 19 -7 21 -22 3 -16 12 -25 32 -29 16
-3 29 -8 28 -12 -3 -27 4 -42 17 -37 9 3 15 0 15 -9 0 -8 7 -15 15 -15 8 0 15
-4 15 -10 0 -5 -5 -10 -11 -10 -8 0 -8 -5 1 -15 7 -8 16 -15 21 -15 5 0 6 7 3
15 -4 9 0 15 10 15 8 0 18 -11 22 -24 3 -14 12 -27 20 -30 8 -3 14 -12 14 -21
0 -8 9 -15 20 -15 20 0 20 1 4 31 -8 17 -24 34 -35 36 -13 4 -19 14 -19 34 0
19 -5 29 -15 29 -8 0 -15 4 -15 9 0 17 -58 68 -85 75 -20 5 -25 10 -17 18 12
12 2 26 -33 45 -11 6 -29 29 -40 50 -11 21 -27 38 -35 38 -8 0 -16 10 -18 23
-2 12 -8 22 -13 22 -12 0 -49 37 -49 50 0 6 -9 10 -21 10 -14 0 -19 5 -16 14
3 7 -8 26 -24 42 -16 15 -28 33 -26 38 2 6 -14 19 -35 28 -33 15 -38 21 -33
39 4 13 3 19 -3 15 -5 -3 -18 4 -28 15 -10 12 -27 25 -36 30 -16 9 -18 4 -18
-56z"/>
<path d="M570 34570 c0 -5 5 -10 10 -10 6 0 10 5 10 10 0 6 -4 10 -10 10 -5 0
-10 -4 -10 -10z"/>
<path d="M640 34481 c0 -5 -3 -17 -6 -25 -5 -12 -2 -15 10 -10 18 7 21 29 6
39 -5 3 -10 2 -10 -4z"/>
<path d="M697 34379 c3 -11 11 -18 18 -15 8 3 16 -6 20 -21 9 -38 18 -20 11
22 -6 28 -11 35 -31 35 -18 0 -22 -4 -18 -21z"/>
<path d="M770 34290 c0 -5 5 -10 10 -10 6 0 10 5 10 10 0 6 -4 10 -10 10 -5 0
-10 -4 -10 -10z"/>
<path d="M841 34254 c0 -11 3 -14 6 -6 3 7 2 16 -1 19 -3 4 -6 -2 -5 -13z"/>
<path d="M0 33322 c0 -20 39 -62 57 -62 6 0 14 -13 18 -29 5 -23 14 -31 36
-36 20 -5 34 -16 40 -33 7 -19 13 -22 21 -14 13 13 -16 52 -39 52 -8 0 -13 8
-11 18 2 12 -3 16 -19 15 -17 -2 -23 2 -23 17 0 20 -56 90 -72 90 -4 0 -8 -8
-8 -18z"/>
<path d="M198 33113 c6 -2 18 -2 25 0 6 3 1 5 -13 5 -14 0 -19 -2 -12 -5z"/>
<path d="M220 33090 c0 -5 5 -10 10 -10 6 0 10 5 10 10 0 6 -4 10 -10 10 -5 0
-10 -4 -10 -10z"/>
<path d="M278 33033 c7 -3 16 -2 19 1 4 3 -2 6 -13 5 -11 0 -14 -3 -6 -6z"/>
<path d="M368 32953 c7 -3 16 -2 19 1 4 3 -2 6 -13 5 -11 0 -14 -3 -6 -6z"/>
<path d="M435 32870 c-3 -5 1 -10 9 -10 9 0 16 5 16 10 0 6 -4 10 -9 10 -6 0
-13 -4 -16 -10z"/>
<path d="M525 32790 c3 -5 8 -10 11 -10 2 0 4 5 4 10 0 6 -5 10 -11 10 -5 0
-7 -4 -4 -10z"/>
<path d="M370 31190 c0 -5 5 -10 11 -10 5 0 7 5 4 10 -3 6 -8 10 -11 10 -2 0
-4 -4 -4 -10z"/>
<path d="M47150 10420 c0 -5 -6 -10 -13 -10 -17 0 -23 -86 -7 -105 6 -7 9 -33
8 -56 -3 -38 -6 -44 -27 -44 -31 0 -39 -21 -12 -30 16 -5 21 -15 21 -41 0 -19
-4 -42 -9 -52 -18 -33 -43 -152 -39 -182 2 -16 1 -27 -2 -25 -7 4 -34 -67 -36
-95 -4 -57 -19 -117 -32 -126 -12 -9 -13 -19 -5 -55 11 -47 6 -129 -7 -129 -5
0 -12 -21 -15 -47 -4 -27 -12 -70 -20 -98 -17 -63 -34 -137 -45 -195 -13 -69
-35 -158 -86 -355 -25 -99 -53 -207 -60 -240 -8 -33 -19 -78 -25 -100 -6 -22
-14 -58 -19 -80 -4 -22 -16 -65 -25 -95 -20 -66 -42 -150 -54 -205 -5 -22 -21
-85 -36 -140 -15 -55 -35 -136 -45 -180 -11 -44 -28 -114 -39 -155 -22 -85
-48 -186 -61 -245 -19 -80 -91 -381 -101 -420 -6 -22 -14 -54 -18 -72 -5 -17
-6 -43 -4 -57 4 -21 8 -24 19 -15 8 6 14 20 14 30 0 10 5 21 10 24 6 3 10 21
10 39 0 17 4 36 9 41 4 6 14 39 20 75 12 66 36 151 52 182 5 10 9 28 9 41 0
12 9 55 20 95 11 39 20 82 20 94 0 13 6 35 14 50 8 15 17 42 20 60 3 18 12 56
20 85 8 29 17 69 21 90 7 44 23 109 35 138 5 11 11 31 13 45 3 14 12 51 21 83
9 32 16 66 16 76 0 10 7 32 15 49 9 17 18 54 22 82 3 28 10 53 14 56 5 3 9 19
9 37 0 28 33 179 47 217 4 8 6 18 5 22 -1 4 5 26 13 49 8 23 15 56 15 75 0 18
5 36 10 39 6 3 10 19 10 36 0 16 5 29 13 29 9 0 8 3 -2 9 -9 6 -10 11 -2 15 6
4 11 21 11 37 0 17 4 28 8 25 5 -3 7 8 4 23 -2 15 2 34 10 42 7 8 14 23 16 34
11 78 16 103 28 127 8 15 14 38 14 53 0 14 5 25 10 25 6 0 10 11 10 25 0 14
10 56 22 93 12 37 21 74 21 82 -1 8 1 22 4 30 10 26 14 44 22 90 4 25 13 55
19 67 7 12 12 32 12 45 0 13 7 36 15 52 8 15 19 56 25 90 5 33 25 120 43 191
55 212 57 224 61 375 6 171 3 190 -30 190 -13 0 -24 -4 -24 -10z"/>
<path d="M25 9270 c3 -5 8 -10 11 -10 2 0 4 5 4 10 0 6 -5 10 -11 10 -5 0 -7
-4 -4 -10z"/>
<path d="M1070 8166 c0 -2 7 -7 16 -10 8 -3 12 -2 9 4 -6 10 -25 14 -25 6z"/>
<path d="M1396 7825 c4 -8 11 -15 16 -15 6 0 5 6 -2 15 -7 8 -14 15 -16 15 -2
0 -1 -7 2 -15z"/>
<path d="M51236 7305 c4 -9 0 -15 -8 -15 -8 0 -22 -8 -31 -17 -13 -15 -13 -21
-2 -37 8 -10 18 -15 23 -12 5 3 15 -1 22 -9 9 -11 10 -15 1 -15 -15 0 -8 -28
20 -83 12 -23 17 -48 14 -60 -4 -15 -3 -18 3 -9 26 38 17 -66 -12 -127 -6 -13
-10 -55 -9 -93 1 -37 -2 -68 -7 -68 -4 0 -9 -19 -9 -42 -1 -24 -3 -54 -5 -68
-2 -14 -5 -46 -5 -71 -1 -31 -8 -54 -21 -69 -11 -13 -20 -37 -21 -54 -2 -69
-9 -113 -33 -210 -13 -55 -27 -122 -31 -148 -3 -26 -10 -50 -16 -53 -5 -4 -9
-18 -9 -33 0 -15 -7 -52 -15 -82 -9 -30 -18 -71 -20 -90 -2 -19 -13 -69 -24
-110 -24 -89 -59 -244 -65 -291 -3 -19 -10 -52 -16 -74 -6 -22 -15 -56 -20
-75 -4 -19 -17 -69 -28 -110 -11 -41 -23 -103 -26 -138 -2 -34 -9 -77 -15 -95
-16 -51 -41 -170 -41 -195 0 -12 -4 -30 -10 -40 -5 -9 -27 -99 -50 -199 -22
-101 -47 -202 -56 -225 -9 -24 -20 -72 -25 -108 -6 -36 -18 -87 -28 -115 -10
-27 -26 -102 -35 -165 -9 -63 -21 -131 -26 -150 -5 -19 -14 -75 -20 -123 -6
-48 -15 -111 -20 -139 -6 -28 -10 -69 -10 -92 0 -22 -7 -59 -15 -81 -16 -44
-20 -115 -7 -115 22 0 44 67 40 120 -2 39 0 58 10 66 8 5 16 31 19 57 4 33 12
52 27 62 11 8 15 15 8 15 -15 0 -5 75 14 105 7 11 14 46 16 78 2 31 5 57 8 57
4 0 12 34 19 75 8 41 17 75 20 75 4 0 6 20 6 44 0 24 3 42 7 40 4 -2 10 17 13
43 4 27 12 64 18 83 6 19 12 42 13 50 1 8 9 48 18 88 9 40 16 89 16 108 0 19
5 34 10 34 6 0 10 12 10 28 0 15 7 59 16 97 9 39 20 97 24 130 5 33 13 83 20
110 6 28 14 62 17 78 3 15 9 30 14 33 5 3 9 23 9 44 0 22 9 54 20 72 11 18 22
53 26 78 3 25 19 83 35 130 15 47 30 118 33 157 3 39 12 89 20 110 16 41 46
216 46 264 0 16 5 29 10 29 6 0 10 17 10 38 0 20 11 66 24 102 50 136 66 188
86 270 33 138 41 164 51 176 5 7 12 25 14 40 8 53 11 62 23 77 11 13 10 16 -5
20 -14 4 -13 5 5 6 15 1 22 7 22 20 0 32 57 246 78 295 12 25 26 46 32 46 6 0
10 10 8 23 -3 19 2 22 29 24 18 1 35 -3 39 -8 3 -5 -2 -9 -10 -9 -10 0 -13 -6
-9 -16 4 -11 8 -12 13 -4 10 17 122 -109 117 -132 -3 -9 1 -22 9 -29 8 -7 11
-21 8 -35 -5 -17 -2 -24 9 -24 8 0 18 -6 20 -12 4 -10 6 -10 6 0 1 6 8 12 16
12 17 0 21 -45 5 -55 -5 -3 -10 -10 -10 -16 0 -5 5 -9 10 -9 6 0 10 7 10 15 0
8 5 15 10 15 6 0 10 -7 10 -15 0 -8 5 -15 10 -15 6 0 10 -5 10 -11 0 -6 7 -18
16 -26 8 -9 13 -25 10 -36 -3 -14 2 -22 25 -30 20 -8 29 -18 29 -34 0 -19 5
-23 33 -23 33 0 34 -1 33 -42 -1 -36 2 -42 17 -40 10 2 17 -3 17 -13 0 -8 11
-20 25 -25 26 -10 34 -35 13 -43 -8 -3 -6 -6 5 -6 9 -1 17 -8 17 -16 0 -8 8
-16 18 -17 70 -6 72 -5 87 26 20 39 35 146 34 236 l-1 71 -102 90 c-55 50
-122 111 -148 135 -26 24 -49 44 -52 44 -3 0 -23 17 -44 38 -21 20 -74 68
-118 107 -43 38 -122 112 -174 163 -52 52 -111 102 -130 112 -19 10 -44 27
-54 39 -21 23 -62 28 -68 9 -3 -7 -10 -8 -17 -3 -11 6 -10 10 3 17 17 10 22
38 6 38 -5 0 -7 -7 -4 -15z"/>
<path d="M0 7294 c0 -11 29 -34 34 -26 2 4 -4 13 -15 20 -10 7 -19 10 -19 6z"/>
<path d="M50 7246 c0 -11 66 -85 97 -109 20 -16 22 -16 16 -2 -3 9 -16 27 -28
38 -62 60 -85 80 -85 73z"/>
<path d="M180 7111 c0 -14 39 -57 40 -43 0 6 -9 21 -20 32 -11 11 -20 16 -20
11z"/>
<path d="M51220 7105 c0 -8 4 -15 9 -15 5 0 11 7 15 15 3 9 0 15 -9 15 -8 0
-15 -7 -15 -15z"/>
<path d="M230 7041 c0 -5 5 -13 10 -16 6 -3 10 -2 10 4 0 5 -4 13 -10 16 -5 3
-10 2 -10 -4z"/>
<path d="M270 7006 c0 -8 23 -33 120 -135 44 -47 80 -78 80 -70 0 8 -35 49
-77 91 -43 42 -83 84 -89 94 -10 17 -34 31 -34 20z"/>
<path d="M484 6784 c3 -9 6 -20 6 -25 0 -5 7 -9 15 -9 12 0 13 4 3 25 -12 27
-34 35 -24 9z"/>
<path d="M560 6691 c0 -5 7 -11 15 -15 8 -3 15 -10 15 -16 0 -11 60 -69 72
-70 3 0 1 11 -5 25 -7 14 -19 25 -27 25 -9 0 -24 14 -33 30 -17 29 -37 40 -37
21z"/>
<path d="M46295 6634 c-9 -19 -18 -45 -19 -57 -1 -12 -9 -35 -18 -52 -8 -16
-18 -48 -21 -70 -3 -22 -18 -83 -32 -134 -14 -52 -25 -111 -25 -130 l1 -36 21
40 c11 22 24 42 28 45 4 3 10 23 13 45 7 50 40 168 49 175 3 3 8 28 10 55 2
28 6 55 10 60 5 9 8 95 3 95 -2 0 -10 -16 -20 -36z"/>
<path d="M686 6571 c-4 -5 -2 -12 3 -15 5 -4 12 -2 15 3 4 5 2 12 -3 15 -5 4
-12 2 -15 -3z"/>
<path d="M720 6534 c0 -5 7 -18 15 -28 12 -16 15 -17 15 -4 0 8 -7 21 -15 28
-8 7 -15 9 -15 4z"/>
<path d="M770 6479 c0 -11 4 -18 10 -14 5 3 7 12 3 20 -7 21 -13 19 -13 -6z"/>
<path d="M800 6430 c0 -5 5 -10 10 -10 6 0 10 5 10 10 0 6 -4 10 -10 10 -5 0
-10 -4 -10 -10z"/>
<path d="M850 6393 c1 -15 28 -43 41 -43 10 1 9 4 -3 14 -10 7 -18 18 -18 25
0 6 -4 11 -10 11 -5 0 -10 -3 -10 -7z"/>
<path d="M945 6280 c3 -5 10 -10 16 -10 5 0 9 5 9 10 0 6 -7 10 -16 10 -8 0
-12 -4 -9 -10z"/>
<path d="M975 6250 c-3 -5 6 -17 20 -26 20 -13 29 -14 38 -5 9 10 8 11 -6 5
-13 -5 -20 -1 -24 15 -6 22 -18 27 -28 11z"/>
<path d="M1090 6136 c0 -9 5 -16 10 -16 6 0 10 4 10 9 0 6 -4 13 -10 16 -5 3
-10 -1 -10 -9z"/>
<path d="M46166 6131 c-3 -4 -9 -35 -12 -67 -4 -33 -12 -62 -18 -66 -14 -9 -1
-22 13 -13 6 3 11 18 11 33 0 15 7 36 15 46 17 22 20 76 6 76 -6 0 -12 -4 -15
-9z"/>
<path d="M1170 6040 c0 -5 5 -10 11 -10 5 0 7 5 4 10 -3 6 -8 10 -11 10 -2 0
-4 -4 -4 -10z"/>
<path d="M52096 6003 c-6 -14 -5 -15 5 -6 7 7 10 15 7 18 -3 3 -9 -2 -12 -12z"/>
<path d="M1242 5969 c2 -7 10 -15 17 -17 8 -3 12 1 9 9 -2 7 -10 15 -17 17 -8
3 -12 -1 -9 -9z"/>
<path d="M46126 5952 c-3 -5 -14 -37 -25 -73 -53 -169 -72 -240 -76 -278 -2
-23 -15 -81 -28 -129 -30 -106 -45 -165 -67 -262 -10 -41 -36 -145 -60 -230
-23 -85 -47 -177 -52 -205 -6 -27 -14 -52 -18 -55 -4 -3 -10 -32 -14 -64 -4
-33 -10 -64 -15 -70 -13 -17 -22 -80 -15 -113 10 -49 31 -29 38 35 9 75 25
149 42 189 8 17 14 40 14 50 0 11 9 53 20 94 20 75 40 161 44 189 1 9 5 20 8
26 4 5 12 40 19 77 7 37 16 67 20 67 4 0 10 24 14 53 7 49 15 89 51 227 7 30
23 80 35 110 23 61 69 261 74 328 4 41 1 50 -9 34z"/>
<path d="M1310 5896 c0 -2 8 -10 18 -17 15 -13 16 -12 3 4 -13 16 -21 21 -21
13z"/>
<path d="M1390 5810 c0 -5 5 -10 11 -10 5 0 7 5 4 10 -3 6 -8 10 -11 10 -2 0
-4 -4 -4 -10z"/>
<path d="M1665 5520 c3 -5 11 -10 16 -10 6 0 7 5 4 10 -3 6 -11 10 -16 10 -6
0 -7 -4 -4 -10z"/>
<path d="M1776 5405 c4 -8 11 -15 16 -15 6 0 5 6 -2 15 -7 8 -14 15 -16 15 -2
0 -1 -7 2 -15z"/>
<path d="M1850 5320 c0 -5 5 -10 10 -10 6 0 10 5 10 10 0 6 -4 10 -10 10 -5 0
-10 -4 -10 -10z"/>
<path d="M0 5191 c0 -30 29 -71 50 -71 6 0 14 -8 18 -19 6 -15 147 -167 390
-419 23 -24 42 -47 42 -51 0 -12 41 -32 52 -25 6 4 8 3 5 -4 -10 -15 3 -42 19
-42 8 0 14 -4 14 -9 0 -15 160 -174 167 -167 4 4 3 10 -3 14 -6 4 -13 15 -17
25 -4 10 -11 15 -17 12 -5 -3 -10 0 -10 8 0 22 -52 77 -72 77 -21 0 -23 11 -6
28 9 9 7 12 -10 12 -12 0 -22 6 -22 13 -1 19 -47 67 -62 64 -7 -2 -10 -2 -6 0
13 8 9 33 -5 33 -8 0 -22 9 -31 19 -17 18 -17 19 1 24 14 4 13 5 -5 6 -23 1
-82 50 -82 68 0 5 -14 17 -30 26 -17 10 -30 24 -30 32 0 21 -21 30 -32 14 -7
-10 -7 -7 -3 9 5 16 2 22 -9 22 -9 0 -16 4 -16 8 0 5 -20 28 -44 52 -24 24
-42 49 -39 57 3 8 -2 13 -15 13 -12 0 -23 9 -27 20 -3 11 -12 20 -18 20 -12 0
-47 34 -47 45 0 12 -55 65 -67 65 -7 0 -13 9 -13 19 0 11 -4 23 -10 26 -6 4
-10 -7 -10 -24z"/>
<path d="M2556 4576 c3 -8 13 -17 22 -21 13 -5 13 -2 -3 15 -21 24 -26 25 -19
6z"/>
<path d="M777 4383 c-15 -15 -5 -38 38 -82 25 -25 95 -98 155 -161 60 -63 112
-111 116 -107 4 4 1 15 -7 24 -8 10 -21 30 -28 45 -8 15 -18 25 -22 22 -13 -8
-69 38 -69 57 0 10 -7 16 -17 15 -10 0 -19 8 -21 19 -3 11 -31 47 -63 79 -33
33 -59 68 -59 78 0 18 -11 24 -23 11z"/>
<path d="M1102 4021 c-10 -6 -2 -20 31 -55 25 -25 47 -46 51 -46 15 0 4 30
-14 40 -11 6 -20 17 -20 25 0 8 -6 15 -14 15 -8 0 -16 7 -18 15 -2 9 -8 12
-16 6z"/>
<path d="M1202 3904 c4 -22 52 -58 69 -51 9 3 5 8 -12 15 -15 6 -29 20 -32 31
-6 25 -30 29 -25 5z"/>
<path d="M1279 3819 c12 -11 21 -24 21 -29 0 -6 7 -10 15 -10 8 0 15 -5 15
-12 0 -11 126 -149 143 -156 15 -7 6 17 -20 57 -15 23 -32 40 -39 37 -7 -3
-17 8 -23 25 -5 16 -17 29 -25 29 -9 0 -16 6 -16 14 0 15 -54 59 -77 62 -11 2
-10 -3 6 -17z"/>
<path d="M45560 3678 c0 -21 -4 -38 -10 -38 -5 0 -10 -4 -10 -10 0 -5 9 -10
20 -10 11 0 20 6 20 14 0 8 2 20 5 28 3 7 -1 22 -9 33 -15 19 -15 18 -16 -17z"/>
<path d="M1488 3608 c-3 -7 7 -25 21 -40 14 -15 37 -38 50 -52 13 -14 29 -26
37 -26 8 0 14 -8 14 -18 0 -11 16 -33 36 -51 l36 -33 -4 28 c-2 15 -9 30 -17
32 -8 3 -11 0 -7 -7 4 -6 5 -11 2 -11 -3 0 -12 16 -21 36 -9 23 -25 40 -43 46
-19 7 -33 23 -41 44 -7 19 -15 33 -19 33 -19 -3 -33 2 -27 10 3 5 1 12 -4 15
-5 4 -11 0 -13 -6z"/>
<path d="M1700 3370 c0 -11 6 -20 13 -20 7 0 20 -12 30 -27 l18 -28 -6 28 c-6
28 -33 67 -47 67 -5 0 -8 -9 -8 -20z"/>
<path d="M45453 3298 c-15 -19 -42 -153 -45 -228 -2 -51 0 -65 11 -65 11 0 15
17 18 65 2 36 6 72 9 80 4 8 12 43 19 77 12 64 7 95 -12 71z"/>
<path d="M1780 3293 c0 -5 9 -19 19 -32 14 -18 20 -21 26 -10 5 7 4 14 -3 17
-7 2 -12 10 -12 18 0 8 -7 14 -15 14 -8 0 -15 -3 -15 -7z"/>
<path d="M1863 3192 c15 -9 27 -22 27 -29 0 -7 5 -13 10 -13 6 0 10 6 10 14 0
17 -38 46 -60 46 -9 0 -4 -7 13 -18z"/>
<path d="M50502 3170 c0 -19 2 -27 5 -17 2 9 2 25 0 35 -3 9 -5 1 -5 -18z"/>
<path d="M0 3127 c0 -40 5 -48 93 -137 79 -82 260 -274 362 -385 85 -93 307
-328 360 -381 33 -33 101 -105 150 -160 50 -54 128 -137 174 -184 46 -47 89
-93 95 -102 7 -10 48 -55 91 -100 43 -46 135 -143 204 -217 69 -74 150 -159
179 -189 28 -30 52 -56 52 -58 0 -2 28 -33 63 -68 34 -35 83 -86 109 -115 26
-28 52 -51 57 -51 5 0 12 -8 15 -17 3 -10 38 -52 77 -93 159 -169 217 -231
279 -300 36 -40 100 -109 143 -153 42 -44 77 -82 77 -84 0 -2 19 -22 43 -46
23 -23 81 -84 127 -135 131 -145 139 -152 160 -152 26 0 26 22 0 45 -11 10
-22 26 -25 36 -4 11 -13 19 -21 19 -8 0 -14 7 -14 15 0 8 -4 15 -8 15 -8 0
-66 57 -246 242 -41 41 -56 64 -56 84 0 22 -3 25 -12 16 -17 -17 -31 -15 -24
3 4 10 -3 20 -19 27 -13 6 -36 28 -50 49 -15 20 -33 40 -41 43 -8 3 -14 12
-14 21 0 8 -8 15 -17 15 -10 0 -25 5 -33 11 -13 9 -12 10 3 5 15 -5 16 -3 7
14 -6 11 -15 20 -20 20 -6 0 -10 9 -10 20 0 11 -4 20 -10 20 -5 0 -10 -4 -10
-10 0 -20 -18 -9 -24 14 -3 13 -28 49 -56 79 -27 30 -50 61 -50 68 0 7 -3 10
-6 6 -3 -3 -21 9 -39 28 -19 18 -36 30 -39 27 -3 -3 -6 2 -6 11 0 9 -16 29
-35 44 -19 15 -35 34 -35 41 0 6 -6 11 -12 10 -7 -2 -14 7 -16 20 -2 12 -8 20
-13 17 -9 -6 -33 17 -74 70 -11 14 -46 53 -77 87 -32 34 -58 67 -58 74 0 6
-11 15 -25 18 -14 4 -30 17 -36 30 -6 12 -24 30 -40 40 -16 9 -29 21 -29 26 0
5 -10 19 -22 32 -13 13 -34 38 -48 56 -14 19 -35 38 -48 43 -13 5 -21 13 -18
18 3 5 -23 38 -59 73 -36 34 -65 71 -65 80 0 10 -9 18 -22 20 -15 2 -22 9 -20
20 1 10 -6 23 -18 30 -11 7 -20 21 -20 30 0 10 -7 18 -15 18 -9 0 -30 16 -48
35 -17 19 -38 35 -45 35 -7 0 -10 5 -7 11 4 5 -10 27 -32 48 -21 21 -50 51
-65 67 -14 16 -38 40 -52 54 -14 13 -26 28 -26 33 0 16 -88 97 -105 97 -12 0
-15 5 -11 17 5 12 -6 29 -36 57 -24 22 -47 39 -51 38 -4 -1 -10 5 -13 13 -11
27 -58 75 -73 75 -12 0 -12 3 -3 12 19 19 14 30 -10 26 -17 -2 -23 2 -23 17 0
12 -11 25 -28 33 -15 7 -27 21 -27 31 0 10 -9 21 -20 24 -11 3 -24 16 -29 30
-10 27 -47 66 -119 129 -23 20 -42 41 -42 47 0 6 -4 11 -10 11 -5 0 -10 7 -10
15 0 17 -46 39 -61 29 -5 -3 -9 9 -9 27 0 26 -3 30 -19 26 -14 -3 -18 -1 -14
9 5 14 -35 72 -51 73 -4 1 -25 18 -45 40 -20 21 -44 41 -53 44 -11 4 -18 17
-18 32 0 15 -7 28 -17 32 -10 4 -30 19 -45 35 -36 39 -48 35 -48 -15z m240
-203 c0 -8 -5 -12 -10 -9 -6 4 -8 11 -5 16 9 14 15 11 15 -7z"/>
<path d="M1935 3130 c-4 -6 -2 -17 4 -23 15 -15 25 -2 13 19 -7 12 -11 13 -17
4z"/>
<path d="M1970 3081 c0 -6 5 -13 10 -16 6 -3 10 1 10 9 0 9 -4 16 -10 16 -5 0
-10 -4 -10 -9z"/>
<path d="M2001 3064 c0 -11 3 -14 6 -6 3 7 2 16 -1 19 -3 4 -6 -2 -5 -13z"/>
<path d="M2020 3030 c0 -13 51 -62 58 -56 2 3 -6 19 -18 35 -21 31 -40 40 -40
21z"/>
<path d="M50461 2994 c0 -11 3 -14 6 -6 3 7 2 16 -1 19 -3 4 -6 -2 -5 -13z"/>
<path d="M2102 2938 c6 -18 28 -21 28 -4 0 9 -7 16 -16 16 -9 0 -14 -5 -12
-12z"/>
<path d="M2135 2900 c3 -5 10 -10 16 -10 5 0 9 5 9 10 0 6 -7 10 -16 10 -8 0
-12 -4 -9 -10z"/>
<path d="M2180 2860 c6 -11 22 -31 35 -46 19 -20 25 -23 25 -10 0 9 -4 16 -10
16 -5 0 -16 14 -25 30 -9 17 -20 30 -26 30 -6 0 -6 -7 1 -20z"/>
<path d="M50396 2804 c-3 -9 -6 -23 -6 -32 0 -9 -7 -30 -15 -46 -8 -15 -20
-58 -26 -95 -6 -36 -15 -83 -20 -104 -6 -20 -7 -42 -4 -47 10 -17 32 -11 38
10 3 11 12 20 20 20 9 0 28 25 43 58 24 48 28 70 28 139 0 81 -11 113 -39 113
-7 0 -16 -7 -19 -16z"/>
<path d="M45312 2759 c-13 -27 -28 -80 -34 -117 -5 -37 -14 -71 -19 -77 -5 -5
-9 -27 -9 -50 l0 -40 24 50 c13 28 31 68 41 90 18 42 37 175 26 187 -3 4 -17
-15 -29 -43z"/>
<path d="M2250 2787 c0 -7 34 -48 75 -91 59 -62 75 -74 75 -57 0 13 -8 25 -20
29 -11 4 -35 28 -53 53 -19 27 -38 44 -46 41 -10 -3 -12 1 -8 17 3 14 0 21 -9
21 -8 0 -14 -6 -14 -13z"/>
<path d="M56225 2660 c3 -5 8 -10 11 -10 2 0 4 5 4 10 0 6 -5 10 -11 10 -5 0
-7 -4 -4 -10z"/>
<path d="M2420 2603 c2 -27 80 -78 80 -52 0 5 -5 9 -10 9 -6 0 -20 11 -32 25
-21 24 -38 32 -38 18z"/>
<path d="M56252 2568 c-16 -16 -15 -28 3 -28 8 0 15 9 15 20 0 23 -2 24 -18 8z"/>
<path d="M56290 2570 c0 -5 5 -10 11 -10 5 0 7 5 4 10 -3 6 -8 10 -11 10 -2 0
-4 -4 -4 -10z"/>
<path d="M56320 2545 c0 -8 -9 -15 -19 -15 -28 0 -32 -11 -35 -85 -2 -56 1
-65 16 -65 22 0 42 -63 21 -68 -19 -5 -16 -39 5 -59 12 -13 16 -30 14 -59 -3
-35 1 -44 23 -58 24 -16 24 -18 9 -41 -16 -24 -15 -26 22 -60 32 -30 35 -35
17 -35 -19 0 -20 -3 -12 -35 5 -19 13 -50 17 -67 5 -18 7 -59 6 -90 -1 -33 3
-58 9 -58 6 0 6 -4 0 -12 -23 -30 -46 -170 -39 -239 3 -40 2 -78 -4 -88 -5
-10 -20 -95 -34 -187 -13 -93 -29 -181 -34 -196 -6 -14 -13 -54 -15 -88 -3
-33 -7 -64 -11 -67 -3 -4 -6 -21 -6 -38 0 -35 -40 -204 -65 -274 -8 -24 -15
-55 -15 -70 0 -14 -7 -35 -15 -45 -8 -11 -15 -40 -15 -65 0 -25 -4 -62 -9 -81
-5 -19 -23 -88 -40 -153 -17 -65 -31 -124 -31 -132 0 -12 17 -15 89 -15 96 0
101 3 101 58 0 15 7 59 16 97 9 39 21 97 26 130 5 33 14 68 20 79 5 10 13 39
17 65 21 120 35 181 57 241 16 44 24 84 23 125 -1 33 6 84 15 114 8 29 13 64
10 76 -3 13 -1 26 5 29 6 4 11 19 11 34 0 15 7 38 16 50 8 12 13 22 10 22 -3
0 -1 12 5 27 6 15 13 50 16 78 3 27 8 52 12 55 4 3 11 14 16 25 8 19 9 19 12
-2 3 -13 11 -23 19 -23 11 0 14 -17 14 -79 0 -75 -1 -80 -22 -84 -25 -4 -15
-11 35 -21 26 -6 27 -7 11 -31 -9 -14 -24 -25 -33 -25 -9 0 -2 -9 18 -21 31
-18 32 -21 17 -37 -14 -16 -14 -19 4 -30 25 -16 25 -28 0 -35 -29 -8 -26 -37
5 -37 24 0 25 -2 25 -69 0 -111 28 -204 46 -156 4 8 10 15 15 15 5 0 9 -7 9
-15 0 -8 -7 -15 -15 -15 -20 0 -19 -10 2 -26 17 -11 14 -16 -25 -53 -38 -36
-40 -41 -24 -50 15 -8 24 -4 46 21 14 17 30 27 34 23 4 -4 1 -10 -5 -12 -15
-5 -17 -33 -3 -33 6 0 10 5 10 10 0 6 7 10 15 10 8 0 15 -4 15 -9 0 -5 -7 -11
-15 -15 -8 -3 -15 -14 -15 -25 0 -11 -4 -23 -10 -26 -5 -3 -10 -17 -10 -31 0
-19 -5 -24 -26 -24 -14 0 -23 -4 -19 -10 3 -6 24 -10 46 -10 28 0 39 -4 39
-15 0 -15 76 -55 104 -55 9 0 16 -7 16 -15 0 -17 -25 -20 -35 -5 -3 6 -15 10
-26 10 -10 0 -19 5 -19 10 0 6 -9 10 -20 10 -11 0 -20 -6 -20 -14 0 -12 -20
-26 -36 -26 -10 0 -3 39 9 43 6 3 1 6 -13 6 -24 1 -25 -2 -22 -44 3 -36 1 -45
-12 -45 -18 0 -21 -15 -5 -25 5 -4 19 1 29 10 17 16 18 14 25 -24 9 -53 25
-53 25 -1 0 22 5 40 10 40 6 0 10 6 10 14 0 16 37 32 48 21 6 -6 -19 -30 -39
-37 -5 -2 -5 -16 0 -33 l9 -30 1 34 1 35 20 -22 c12 -12 25 -22 30 -22 6 0 10
-9 10 -20 0 -16 -7 -20 -30 -20 -24 0 -30 -4 -30 -22 0 -17 -3 -19 -12 -10 -7
7 -20 12 -30 12 -13 0 -18 -8 -18 -30 0 -26 4 -30 28 -31 24 -1 23 -2 -10 -11
-21 -6 -38 -14 -38 -19 0 -5 -9 -9 -19 -9 -11 0 -23 -4 -26 -10 -4 -6 18 -10
59 -10 37 0 66 -4 66 -10 0 -15 123 -12 139 3 11 9 14 9 18 0 4 -10 184 -13
854 -13 467 0 849 3 849 6 0 3 -20 26 -44 52 -24 26 -57 61 -72 77 -14 17 -75
82 -134 145 -59 63 -122 133 -141 154 -19 22 -43 49 -54 61 -11 11 -65 70
-120 130 -113 124 -220 240 -250 270 -19 20 -153 167 -226 249 -19 21 -52 57
-74 80 -22 22 -108 115 -190 206 -83 91 -153 166 -157 168 -4 2 -52 54 -106
115 -54 62 -122 137 -151 167 -29 30 -121 134 -204 230 -84 96 -197 220 -252
275 -55 55 -115 117 -133 138 -19 22 -32 32 -32 22z m28 -44 c3 -8 -1 -12 -9
-9 -7 2 -15 10 -17 17 -3 8 1 12 9 9 7 -2 15 -10 17 -17z m352 -1661 c0 -22
-4 -40 -10 -40 -5 0 -10 18 -10 40 0 22 5 40 10 40 6 0 10 -18 10 -40z m60
-50 c0 -5 -4 -10 -10 -10 -5 0 -10 5 -10 10 0 6 5 10 10 10 6 0 10 -4 10 -10z
m-33 -62 c-3 -8 -6 -5 -6 6 -1 11 2 17 5 13 3 -3 4 -12 1 -19z m93 -92 c0 -3
-4 -8 -10 -11 -5 -3 -10 -1 -10 4 0 6 5 11 10 11 6 0 10 -2 10 -4z m-13 -91
c8 -9 13 -19 10 -22 -6 -5 -37 21 -37 31 0 10 11 6 27 -9z m-27 -75 c0 -5 -4
-10 -10 -10 -5 0 -10 5 -10 10 0 6 5 10 10 10 6 0 10 -4 10 -10z m130 -4 c0
-7 -7 -19 -15 -26 -13 -11 -15 -8 -15 14 0 16 5 26 15 26 8 0 15 -6 15 -14z
m-110 -56 c0 -11 -7 -20 -15 -20 -13 0 -14 4 -5 20 6 11 13 20 15 20 3 0 5 -9
5 -20z m-40 0 c0 -5 -4 -10 -10 -10 -5 0 -10 5 -10 10 0 6 5 10 10 10 6 0 10
-4 10 -10z m140 -14 c0 -11 -19 -15 -25 -6 -3 5 1 10 9 10 9 0 16 -2 16 -4z
m29 -148 c1 -5 -8 -8 -18 -8 -10 0 -21 -7 -25 -15 -7 -20 -26 -19 -26 1 0 9
12 27 27 40 25 22 28 22 35 6 3 -9 7 -20 7 -24z m11 -79 c0 -5 -7 -9 -15 -9
-15 0 -20 12 -9 23 8 8 24 -1 24 -14z"/>
<path d="M2490 2526 c0 -2 22 -28 50 -57 37 -41 50 -49 50 -35 0 11 -18 37
-41 58 -35 33 -59 47 -59 34z"/>
<path d="M2610 2407 c0 -19 107 -133 116 -124 4 4 -2 16 -14 27 -12 12 -22 25
-22 31 0 5 -11 15 -25 21 -14 6 -28 22 -31 35 -7 25 -24 32 -24 10z"/>
<path d="M45218 2365 c-4 -22 -8 -51 -8 -65 1 -22 2 -23 11 -7 5 9 9 39 7 65
l-3 47 -7 -40z"/>
<path d="M50314 2386 c4 -11 0 -23 -8 -30 -26 -19 -81 -256 -73 -311 2 -16 -4
-48 -13 -70 -21 -46 -40 -117 -45 -160 -4 -37 -47 -220 -70 -295 -10 -30 -24
-89 -32 -130 -9 -41 -18 -82 -21 -90 -7 -21 -7 -19 -21 -85 -7 -33 -17 -72
-23 -87 -5 -14 -11 -52 -13 -85 -2 -32 -7 -78 -11 -102 -6 -35 -4 -42 6 -36
10 6 11 2 7 -16 -3 -13 -2 -30 2 -37 11 -19 22 39 15 78 -7 32 9 42 21 13 6
-16 9 -14 21 10 8 15 12 36 9 47 -3 10 -2 21 3 24 5 3 8 33 7 68 -1 35 2 72 8
83 11 22 15 50 19 136 3 52 4 55 27 51 21 -4 23 -2 17 24 -3 16 -2 54 3 84 5
30 9 46 10 35 l2 -20 9 20 c5 11 9 40 9 65 1 60 19 196 38 295 9 44 18 93 21
110 3 16 15 37 27 47 26 20 38 55 21 62 -7 3 -6 8 4 16 11 9 12 13 3 17 -7 2
-13 10 -13 15 0 6 3 8 7 5 8 -9 34 13 28 23 -3 5 0 21 6 37 15 40 20 83 9 83
-6 0 -10 9 -10 20 0 14 5 18 18 14 15 -5 15 -4 -1 9 -12 10 -17 23 -13 34 3
10 1 25 -5 33 -9 12 -10 12 -5 -4z m3 -148 c-3 -8 -6 -5 -6 6 -1 11 2 17 5 13
3 -3 4 -12 1 -19z m-282 -1228 c3 -5 -1 -10 -10 -10 -9 0 -13 5 -10 10 3 6 8
10 10 10 2 0 7 -4 10 -10z"/>
<path d="M2740 2255 c0 -8 5 -15 10 -15 13 0 38 -26 68 -68 13 -17 29 -32 35
-32 7 0 4 7 -5 14 -10 7 -18 18 -18 25 0 13 -71 91 -82 91 -5 0 -8 -7 -8 -15z"/>
<path d="M45190 2225 c0 -8 2 -15 4 -15 2 0 6 7 10 15 3 8 1 15 -4 15 -6 0
-10 -7 -10 -15z"/>
<path d="M45151 2114 c-15 -53 -3 -71 19 -28 18 34 17 64 -1 64 -4 0 -13 -16
-18 -36z"/>
<path d="M2880 2116 c0 -9 5 -16 10 -16 6 0 10 4 10 9 0 6 -4 13 -10 16 -5 3
-10 -1 -10 -9z"/>
<path d="M2910 2090 c0 -5 5 -10 10 -10 6 0 10 -6 10 -14 0 -7 20 -36 45 -62
25 -27 45 -43 45 -36 0 7 -11 24 -25 38 -14 14 -25 29 -25 34 0 6 -4 10 -10
10 -5 0 -10 6 -10 13 0 7 -9 18 -20 25 -12 7 -20 8 -20 2z"/>
<path d="M3060 1931 c0 -13 40 -61 51 -61 5 0 9 7 9 15 0 9 -6 12 -15 9 -10
-4 -18 3 -25 20 -9 25 -20 35 -20 17z"/>
<path d="M3120 1857 c0 -9 50 -61 54 -56 3 2 -1 11 -7 19 -15 19 -47 44 -47
37z"/>
<path d="M3231 1740 c6 -14 18 -29 25 -33 8 -4 14 -15 14 -22 0 -8 5 -15 10
-15 19 0 10 20 -26 58 -28 29 -33 32 -23 12z"/>
<path d="M3316 1642 c11 -10 23 -24 27 -32 4 -11 6 -11 6 -2 2 23 -19 52 -37
52 -15 -1 -14 -3 4 -18z"/>
<path d="M3390 1560 c0 -5 5 -10 11 -10 5 0 7 5 4 10 -3 6 -8 10 -11 10 -2 0
-4 -4 -4 -10z"/>
<path d="M3427 1533 c-3 -3 5 -16 19 -30 14 -14 28 -23 31 -20 3 3 -6 17 -20
31 -14 14 -27 22 -30 19z"/>
<path d="M44992 1461 c-18 -51 -15 -85 4 -41 8 19 13 43 12 55 -3 16 -6 13
-16 -14z"/>
<path d="M3505 1436 c11 -8 24 -12 29 -8 5 3 1 9 -10 13 -31 12 -39 10 -19 -5z"/>
<path d="M3545 1400 c3 -5 8 -10 11 -10 2 0 4 5 4 10 0 6 -5 10 -11 10 -5 0
-7 -4 -4 -10z"/>
<path d="M44966 1364 c-4 -9 -4 -19 -1 -22 2 -3 7 3 11 12 4 9 4 19 1 22 -2 3
-7 -3 -11 -12z"/>
<path d="M3600 1346 c0 -7 46 -56 53 -56 3 0 -1 14 -9 30 -9 17 -22 30 -30 30
-8 0 -14 -2 -14 -4z"/>
<path d="M56540 1241 c0 -22 5 -43 10 -46 6 -4 10 12 10 39 0 25 -4 46 -10 46
-5 0 -10 -18 -10 -39z"/>
<path d="M3693 1233 c9 -9 19 -14 23 -11 10 10 -6 28 -24 28 -15 0 -15 -1 1
-17z"/>
<path d="M3769 1156 c28 -30 31 -31 31 -13 0 8 -12 19 -27 26 l-28 13 24 -26z"/>
<path d="M50080 1141 c0 -25 6 -27 13 -6 4 8 2 17 -3 20 -6 4 -10 -3 -10 -14z"/>
<path d="M13 1105 c-9 -9 -13 -49 -13 -119 l0 -105 46 -48 c25 -26 82 -88 127
-138 45 -49 89 -96 97 -105 8 -9 53 -58 100 -110 47 -51 94 -103 105 -115 11
-11 58 -63 105 -114 47 -51 115 -125 152 -164 37 -40 68 -75 68 -79 0 -5 48
-8 106 -8 80 0 105 3 101 13 -2 6 -14 12 -26 11 -11 0 -21 5 -21 13 0 7 -5 13
-11 13 -5 0 -15 14 -21 30 -5 17 -19 35 -29 41 -10 5 -19 16 -19 24 0 8 -9 15
-21 15 -11 0 -17 5 -14 10 4 6 -5 10 -19 10 -14 0 -26 5 -26 10 0 6 7 10 15
10 8 0 15 4 15 10 0 13 -34 30 -59 30 -18 0 -21 6 -21 38 0 26 -6 41 -20 50
-12 7 -20 8 -20 2 0 -5 -7 -10 -15 -10 -8 0 -15 9 -15 19 0 10 -7 21 -15 25
-8 3 -15 12 -15 21 0 8 -5 15 -11 15 -6 0 -8 8 -4 19 5 15 2 18 -14 14 -35 -9
-81 57 -49 70 9 4 8 6 -3 6 -20 1 -61 45 -52 55 5 5 -3 5 -17 2 -16 -5 -20 -4
-12 2 14 9 6 45 -8 37 -5 -3 -11 4 -15 15 -3 11 -11 20 -16 20 -12 0 -38 26
-68 68 -13 18 -41 44 -62 58 -23 14 -39 32 -39 43 0 22 -17 37 -45 43 -12 2
-21 13 -23 26 -2 12 -10 22 -17 22 -8 0 -19 15 -24 33 -6 20 -10 25 -10 12 -1
-15 -5 -11 -19 15 -11 19 -29 39 -40 45 -12 5 -22 14 -22 19 0 5 -15 23 -32
39 -21 19 -28 31 -20 34 13 5 17 23 5 23 -5 -1 -14 -7 -20 -15z"/>
<path d="M44901 1104 c0 -11 3 -14 6 -6 3 7 2 16 -1 19 -3 4 -6 -2 -5 -13z"/>
<path d="M3870 1050 c0 -5 5 -10 11 -10 5 0 7 5 4 10 -3 6 -8 10 -11 10 -2 0
-4 -4 -4 -10z"/>
<path d="M3930 992 c0 -4 7 -16 15 -26 15 -19 15 -19 15 1 0 11 -7 23 -15 27
-8 3 -15 2 -15 -2z"/>
<path d="M44856 949 c-11 -36 -16 -89 -8 -89 11 0 27 89 18 97 -3 3 -8 0 -10
-8z"/>
<path d="M56515 929 c-4 -6 -5 -13 -2 -16 7 -7 27 6 27 18 0 12 -17 12 -25 -2z"/>
<path d="M4033 874 c44 -48 77 -71 77 -55 0 5 -16 18 -36 30 -19 12 -33 25
-30 30 6 10 -10 25 -36 34 -10 3 2 -14 25 -39z"/>
<path d="M44823 834 c-3 -8 -1 -20 6 -27 8 -8 11 -4 11 16 0 30 -7 35 -17 11z"/>
<path d="M44798 770 c-3 -19 -7 -42 -9 -50 -2 -8 3 -15 11 -15 18 0 25 41 12
75 -9 24 -9 24 -14 -10z"/>
<path d="M49980 790 c0 -5 -6 -10 -14 -10 -9 0 -15 -18 -19 -51 -4 -28 -11
-57 -18 -65 -6 -8 -9 -20 -6 -28 4 -9 -4 -34 -17 -58 -14 -25 -29 -78 -36
-128 -7 -47 -17 -98 -22 -113 -6 -15 -8 -30 -5 -34 13 -12 34 7 40 36 4 21 15
35 31 41 21 7 25 17 31 72 8 79 14 100 26 93 5 -4 9 -1 9 4 0 6 -7 11 -15 11
-19 0 -20 53 -2 72 13 13 31 71 41 136 4 24 2 32 -9 32 -8 0 -15 -4 -15 -10z"/>
<path d="M56583 786 c-13 -6 -23 -14 -23 -18 0 -13 17 -9 32 6 8 8 23 16 34
19 18 4 18 5 -1 5 -11 0 -30 -5 -42 -12z"/>
<path d="M4131 774 c0 -11 3 -14 6 -6 3 7 2 16 -1 19 -3 4 -6 -2 -5 -13z"/>
<path d="M56616 751 c-3 -5 1 -11 9 -15 9 -3 15 0 15 9 0 16 -16 20 -24 6z"/>
<path d="M56555 720 c-3 -5 -2 -10 4 -10 5 0 13 5 16 10 3 6 2 10 -4 10 -5 0
-13 -4 -16 -10z"/>
<path d="M4180 709 c0 -5 5 -7 10 -4 6 3 10 8 10 11 0 2 -4 4 -10 4 -5 0 -10
-5 -10 -11z"/>
<path d="M56620 695 c0 -14 5 -25 10 -25 6 0 10 11 10 25 0 14 -4 25 -10 25
-5 0 -10 -11 -10 -25z"/>
<path d="M4225 670 c3 -5 8 -10 11 -10 2 0 4 5 4 10 0 6 -5 10 -11 10 -5 0 -7
-4 -4 -10z"/>
<path d="M44792 655 c0 -16 2 -22 5 -12 2 9 2 23 0 30 -3 6 -5 -1 -5 -18z"/>
<path d="M56618 613 c3 -32 1 -48 -9 -54 -8 -5 -9 -9 -3 -9 6 0 24 11 39 25
l29 24 -31 29 -30 30 5 -45z"/>
<path d="M4260 635 c0 -3 11 -18 25 -33 29 -31 34 -16 6 16 -18 21 -31 28 -31
17z"/>
<path d="M44760 570 c0 -5 5 -10 10 -10 6 0 10 5 10 10 0 6 -4 10 -10 10 -5 0
-10 -4 -10 -10z"/>
<path d="M44732 493 c-21 -68 -40 -157 -47 -218 -5 -32 -14 -65 -21 -72 -7 -7
-20 -48 -29 -91 -9 -42 -19 -85 -22 -94 -8 -31 15 -19 31 14 15 36 26 76 31
123 1 17 10 59 20 95 9 35 18 73 20 85 1 11 8 33 14 49 20 50 32 117 23 132
-6 11 -11 6 -20 -23z"/>
<path d="M4370 511 c0 -5 5 -13 10 -16 6 -3 10 -2 10 4 0 5 -4 13 -10 16 -5 3
-10 2 -10 -4z"/>
<path d="M580 470 c0 -5 4 -10 9 -10 6 0 13 5 16 10 3 6 -1 10 -9 10 -9 0 -16
-4 -16 -10z"/>
<path d="M4435 440 c3 -5 8 -10 11 -10 2 0 4 5 4 10 0 6 -5 10 -11 10 -5 0 -7
-4 -4 -10z"/>
<path d="M4505 371 c-3 -5 -1 -12 5 -16 5 -3 10 1 10 9 0 18 -6 21 -15 7z"/>
<path d="M49830 253 c-6 -16 -15 -37 -20 -48 -9 -20 -18 -71 -24 -135 -2 -19
-6 -43 -11 -53 -5 -13 -2 -17 13 -17 12 0 22 9 25 21 3 12 10 18 15 15 12 -7
22 67 17 129 -3 35 -2 44 5 30 10 -24 11 -23 15 38 3 54 -19 66 -35 20z"/>
<path d="M40426 261 c-4 -7 -5 -15 -2 -18 9 -9 19 4 14 18 -4 11 -6 11 -12 0z"/>
<path d="M56600 250 c0 -5 9 -10 21 -10 11 0 17 5 14 10 -3 6 -13 10 -21 10
-8 0 -14 -4 -14 -10z"/>
<path d="M4662 198 c8 -12 21 -24 28 -26 8 -3 6 5 -6 21 -23 32 -42 36 -22 5z"/>
<path d="M40406 188 c-8 -30 -7 -38 2 -38 4 0 8 14 9 30 3 36 -2 39 -11 8z"/>
<path d="M56640 170 c0 -5 7 -10 16 -10 8 0 12 5 9 10 -3 6 -10 10 -16 10 -5
0 -9 -4 -9 -10z"/>
<path d="M56697 140 c8 -31 20 -33 25 -5 4 19 1 25 -12 25 -13 0 -17 -6 -13
-20z"/>
<path d="M40371 74 c-21 -61 -22 -90 -2 -68 10 12 36 123 29 129 -2 3 -14 -25
-27 -61z"/>
<path d="M56688 73 c6 -2 18 -2 25 0 6 3 1 5 -13 5 -14 0 -19 -2 -12 -5z"/>
</g>
</svg>
