<svg width="350" height="350" viewBox="0 0 350 350" fill="none" xmlns="http://www.w3.org/2000/svg">
<rect width="350" height="350" fill="#FC2947"/>
<g clip-path="url(#clip0_23_27)">
<path d="M224.219 109.375H196.875C196.875 97.3096 187.065 87.5 175 87.5C162.935 87.5 153.125 97.3096 153.125 109.375H125.781C116.724 109.375 109.375 116.724 109.375 125.781V246.094C109.375 255.151 116.724 262.5 125.781 262.5H224.219C233.276 262.5 240.625 255.151 240.625 246.094V125.781C240.625 116.724 233.276 109.375 224.219 109.375ZM142.188 232.422C137.642 232.422 133.984 228.765 133.984 224.219C133.984 219.673 137.642 216.016 142.188 216.016C146.733 216.016 150.391 219.673 150.391 224.219C150.391 228.765 146.733 232.422 142.188 232.422ZM142.188 199.609C137.642 199.609 133.984 195.952 133.984 191.406C133.984 186.86 137.642 183.203 142.188 183.203C146.733 183.203 150.391 186.86 150.391 191.406C150.391 195.952 146.733 199.609 142.188 199.609ZM142.188 166.797C137.642 166.797 133.984 163.14 133.984 158.594C133.984 154.048 137.642 150.391 142.188 150.391C146.733 150.391 150.391 154.048 150.391 158.594C150.391 163.14 146.733 166.797 142.188 166.797ZM175 101.172C179.546 101.172 183.203 104.829 183.203 109.375C183.203 113.921 179.546 117.578 175 117.578C170.454 117.578 166.797 113.921 166.797 109.375C166.797 104.829 170.454 101.172 175 101.172ZM218.75 226.953C218.75 228.457 217.52 229.688 216.016 229.688H166.797C165.293 229.688 164.062 228.457 164.062 226.953V221.484C164.062 219.98 165.293 218.75 166.797 218.75H216.016C217.52 218.75 218.75 219.98 218.75 221.484V226.953ZM218.75 194.141C218.75 195.645 217.52 196.875 216.016 196.875H166.797C165.293 196.875 164.062 195.645 164.062 194.141V188.672C164.062 187.168 165.293 185.938 166.797 185.938H216.016C217.52 185.938 218.75 187.168 218.75 188.672V194.141ZM218.75 161.328C218.75 162.832 217.52 164.062 216.016 164.062H166.797C165.293 164.062 164.062 162.832 164.062 161.328V155.859C164.062 154.355 165.293 153.125 166.797 153.125H216.016C217.52 153.125 218.75 154.355 218.75 155.859V161.328Z" fill="black"/>
</g>
<defs>
<clipPath id="clip0_23_27">
<rect width="175" height="175" fill="white" transform="translate(87.5 87.5)"/>
</clipPath>
</defs>
</svg>
