<svg width="350" height="350" viewBox="0 0 350 350" fill="none" xmlns="http://www.w3.org/2000/svg">
<rect width="350" height="350" fill="#FFC700"/>
<g clip-path="url(#clip0_23_26)">
<path d="M257.031 218.75H109.375V114.844C109.375 111.822 106.928 109.375 103.906 109.375H92.9688C89.9473 109.375 87.5 111.822 87.5 114.844V229.688C87.5 235.727 92.3979 240.625 98.4375 240.625H257.031C260.053 240.625 262.5 238.178 262.5 235.156V224.219C262.5 221.197 260.053 218.75 257.031 218.75ZM246.094 120.312H205.741C198.434 120.312 194.773 129.148 199.941 134.316L211.015 145.39L185.938 170.471L160.86 145.394C156.587 141.121 149.663 141.121 145.394 145.394L121.916 168.872C119.779 171.008 119.779 174.47 121.916 176.606L129.647 184.338C131.783 186.474 135.246 186.474 137.382 184.338L153.125 168.591L178.203 193.669C182.475 197.941 189.4 197.941 193.669 193.669L226.481 160.856L237.556 171.931C242.724 177.099 251.559 173.438 251.559 166.13V125.781C251.562 122.76 249.115 120.312 246.094 120.312Z" fill="black"/>
</g>
<defs>
<clipPath id="clip0_23_26">
<rect width="175" height="175" fill="white" transform="translate(87.5 87.5)"/>
</clipPath>
</defs>
</svg>
