<svg width="350" height="350" viewBox="0 0 350 350" fill="none" xmlns="http://www.w3.org/2000/svg">
<rect width="350" height="350" fill="#6528F7"/>
<g clip-path="url(#clip0_23_28)">
<path d="M251.562 112.5V128.125C251.562 141.895 217.269 153.125 175 153.125C132.731 153.125 98.4375 141.895 98.4375 128.125V112.5C98.4375 98.7304 132.731 87.5 175 87.5C217.269 87.5 251.562 98.7304 251.562 112.5ZM251.562 147.656V182.812C251.562 196.582 217.269 207.812 175 207.812C132.731 207.812 98.4375 196.582 98.4375 182.812V147.656C114.886 158.984 144.993 164.258 175 164.258C205.007 164.258 235.113 158.984 251.562 147.656ZM251.562 202.344V237.5C251.562 251.27 217.269 262.5 175 262.5C132.731 262.5 98.4375 251.27 98.4375 237.5V202.344C114.886 213.672 144.993 218.946 175 218.946C205.007 218.946 235.113 213.672 251.562 202.344Z" fill="black"/>
</g>
<defs>
<clipPath id="clip0_23_28">
<rect width="175" height="175" fill="white" transform="translate(87.5 87.5)"/>
</clipPath>
</defs>
</svg>
