<svg width="350" height="350" viewBox="0 0 350 350" fill="none" xmlns="http://www.w3.org/2000/svg">
<rect width="350" height="350" fill="#00DFA2"/>
<g clip-path="url(#clip0_23_30)">
<path d="M251.562 210.547V95.7031C251.562 91.1572 247.905 87.5 243.359 87.5H131.25C113.135 87.5 98.4375 102.197 98.4375 120.312V229.688C98.4375 247.803 113.135 262.5 131.25 262.5H243.359C247.905 262.5 251.562 258.843 251.562 254.297V248.828C251.562 246.265 250.366 243.94 248.521 242.437C247.085 237.173 247.085 222.168 248.521 216.904C250.366 215.435 251.562 213.11 251.562 210.547ZM142.188 133.301C142.188 132.173 143.11 131.25 144.238 131.25H216.699C217.827 131.25 218.75 132.173 218.75 133.301V140.137C218.75 141.265 217.827 142.188 216.699 142.188H144.238C143.11 142.188 142.188 141.265 142.188 140.137V133.301ZM142.188 155.176C142.188 154.048 143.11 153.125 144.238 153.125H216.699C217.827 153.125 218.75 154.048 218.75 155.176V162.012C218.75 163.14 217.827 164.062 216.699 164.062H144.238C143.11 164.062 142.188 163.14 142.188 162.012V155.176ZM228.799 240.625H131.25C125.2 240.625 120.312 235.737 120.312 229.688C120.312 223.672 125.234 218.75 131.25 218.75H228.799C228.149 224.595 228.149 234.78 228.799 240.625Z" fill="black"/>
</g>
<defs>
<clipPath id="clip0_23_30">
<rect width="175" height="175" fill="white" transform="translate(87.5 87.5)"/>
</clipPath>
</defs>
</svg>
