<svg width="350" height="350" viewBox="0 0 350 350" fill="none" xmlns="http://www.w3.org/2000/svg">
<rect width="350" height="350" fill="#FF4949"/>
<g clip-path="url(#clip0_23_29)">
<path d="M144.375 201.25C143.721 201.25 143.068 201.346 142.444 201.548C138.901 202.699 135.174 203.438 131.25 203.438C127.326 203.438 123.599 202.699 120.053 201.548C119.429 201.346 118.778 201.25 118.125 201.25C101.155 201.25 87.4097 215.053 87.5 232.045C87.5382 239.225 93.4417 245 100.625 245H161.875C169.058 245 174.962 239.225 175 232.045C175.09 215.053 161.344 201.25 144.375 201.25ZM131.25 192.5C145.748 192.5 157.5 180.748 157.5 166.25C157.5 151.752 145.748 140 131.25 140C116.752 140 105 151.752 105 166.25C105 180.748 116.752 192.5 131.25 192.5ZM249.375 105H144.375C137.137 105 131.25 111.084 131.25 118.56V131.25C137.654 131.25 143.582 133.104 148.75 136.117V122.5H245V201.25H227.5V183.75H192.5V201.25H171.653C176.876 205.814 180.709 211.84 182.506 218.75H249.375C256.613 218.75 262.5 212.666 262.5 205.19V118.56C262.5 111.084 256.613 105 249.375 105Z" fill="black"/>
</g>
<defs>
<clipPath id="clip0_23_29">
<rect width="175" height="175" fill="white" transform="translate(87.5 87.5)"/>
</clipPath>
</defs>
</svg>
