<svg width="350" height="350" viewBox="0 0 350 350" fill="none" xmlns="http://www.w3.org/2000/svg">
<rect width="350" height="350" fill="#2CD3E1"/>
<g clip-path="url(#clip0_23_25)">
<path d="M257.671 146.891L181.399 123.457C177.242 122.18 172.758 122.18 168.604 123.457L92.329 146.891C85.8923 148.868 85.8923 157.38 92.329 159.357L105.626 163.442C102.709 167.049 100.915 171.448 100.737 176.266C98.104 177.776 96.2501 180.499 96.2501 183.75C96.2501 186.698 97.8032 189.178 100.04 190.764L93.0591 222.176C92.4521 224.908 94.5302 227.5 97.3274 227.5H112.67C115.47 227.5 117.548 224.908 116.941 222.176L109.96 190.764C112.197 189.178 113.75 186.698 113.75 183.75C113.75 180.587 111.981 177.94 109.468 176.403C109.676 172.296 111.776 168.665 115.125 166.362L168.602 182.793C171.079 183.553 175.831 184.502 181.396 182.793L257.671 159.36C264.111 157.38 264.111 148.871 257.671 146.891ZM183.966 191.158C176.165 193.553 169.518 192.229 166.031 191.158L126.377 178.976L122.5 210C122.5 219.666 146.005 227.5 175 227.5C203.995 227.5 227.5 219.666 227.5 210L223.623 178.973L183.966 191.158Z" fill="black"/>
</g>
<defs>
<clipPath id="clip0_23_25">
<rect width="175" height="175" fill="white" transform="translate(87.5 87.5)"/>
</clipPath>
</defs>
</svg>
